<mxfile host="65bd71144e">
    <diagram id="dPa3eCRp1KqCvTpyh3m8" name="Page-1">
        <mxGraphModel dx="1364" dy="1482" grid="1" gridSize="10" guides="1" tooltips="1" connect="1" arrows="1" fold="1" page="1" pageScale="1" pageWidth="827" pageHeight="1169" background="#ffffff" math="0" shadow="0">
            <root>
                <mxCell id="0"/>
                <mxCell id="1" parent="0"/>
                <mxCell id="23" value="" style="edgeStyle=orthogonalEdgeStyle;rounded=0;orthogonalLoop=1;jettySize=auto;html=1;exitX=0.5;exitY=1;exitDx=0;exitDy=0;entryX=0.5;entryY=0;entryDx=0;entryDy=0;fillColor=#eeeeee;strokeColor=#36393d;startArrow=none;" parent="1" source="126" target="63" edge="1">
                    <mxGeometry x="-0.0025" relative="1" as="geometry">
                        <mxPoint x="260" y="80" as="targetPoint"/>
                        <mxPoint as="offset"/>
                    </mxGeometry>
                </mxCell>
                <mxCell id="2" value="" style="ellipse;fillColor=#eeeeee;strokeColor=#36393d;" parent="1" vertex="1">
                    <mxGeometry x="460" width="30" height="30" as="geometry"/>
                </mxCell>
                <mxCell id="25" value="&lt;font color=&quot;#000000&quot;&gt;startSpil&lt;/font&gt;" style="swimlane;fontStyle=4;align=center;verticalAlign=top;childLayout=stackLayout;horizontal=1;startSize=37;horizontalStack=0;resizeParent=1;resizeParentMax=0;resizeLast=0;collapsible=0;marginBottom=0;html=1;rounded=1;absoluteArcSize=1;arcSize=25;fillColor=#eeeeee;strokeColor=#36393d;" parent="1" vertex="1">
                    <mxGeometry x="340" y="240" width="270" height="157" as="geometry"/>
                </mxCell>
                <mxCell id="26" value="Skjul andre skærme" style="fillColor=none;strokeColor=none;align=left;verticalAlign=middle;spacingLeft=5;fontColor=#000000;" parent="25" vertex="1">
                    <mxGeometry y="37" width="270" height="20" as="geometry"/>
                </mxCell>
                <mxCell id="46" value="Nulstil point og liv" style="fillColor=none;strokeColor=none;align=left;verticalAlign=middle;spacingLeft=5;fontColor=#000000;" parent="25" vertex="1">
                    <mxGeometry y="57" width="270" height="20" as="geometry"/>
                </mxCell>
                <mxCell id="47" value="Skriv point og liv ud" style="fillColor=none;strokeColor=none;align=left;verticalAlign=middle;spacingLeft=5;fontColor=#000000;" parent="25" vertex="1">
                    <mxGeometry y="77" width="270" height="20" as="geometry"/>
                </mxCell>
                <mxCell id="49" value="Start timer -animation" style="fillColor=none;strokeColor=none;align=left;verticalAlign=middle;spacingLeft=5;fontColor=#000000;" parent="25" vertex="1">
                    <mxGeometry y="97" width="270" height="20" as="geometry"/>
                </mxCell>
                <mxCell id="50" value="Random position og random speed" style="fillColor=none;strokeColor=none;align=left;verticalAlign=middle;spacingLeft=5;fontColor=#000000;" parent="25" vertex="1">
                    <mxGeometry y="117" width="270" height="20" as="geometry"/>
                </mxCell>
                <mxCell id="52" value="Start fald -animationer på elementer" style="fillColor=none;strokeColor=none;align=left;verticalAlign=middle;spacingLeft=5;fontColor=#000000;" parent="25" vertex="1">
                    <mxGeometry y="137" width="270" height="20" as="geometry"/>
                </mxCell>
                <mxCell id="53" value="&lt;span style=&quot;color: rgba(0, 0, 0, 0); font-family: monospace; font-size: 0px; text-align: start; background-color: rgb(42, 37, 47);&quot;&gt;%3CmxGraphModel%3E%3Croot%3E%3CmxCell%20id%3D%220%22%2F%3E%3CmxCell%20id%3D%221%22%20parent%3D%220%22%2F%3E%3CmxCell%20id%3D%222%22%20value%3D%22Windows%20load%22%20style%3D%22fillColor%3Dnone%3BstrokeColor%3Dnone%3Balign%3Dleft%3BverticalAlign%3Dmiddle%3BspacingLeft%3D5%3BfontColor%3D%23000000%3B%22%20vertex%3D%221%22%20parent%3D%221%22%3E%3CmxGeometry%20x%3D%22432%22%20y%3D%2240%22%20width%3D%2286%22%20height%3D%2220%22%20as%3D%22geometry%22%2F%3E%3C%2FmxCell%3E%3C%2Froot%3E%3C%2FmxGraphModel%3E&lt;/span&gt;" style="edgeStyle=orthogonalEdgeStyle;rounded=0;orthogonalLoop=1;jettySize=auto;html=1;exitX=0.5;exitY=1;exitDx=0;exitDy=0;entryX=0.5;entryY=0;entryDx=0;entryDy=0;fillColor=#eeeeee;strokeColor=#36393d;startArrow=none;" parent="1" source="130" target="25" edge="1">
                    <mxGeometry relative="1" as="geometry">
                        <mxPoint x="260" y="157" as="sourcePoint"/>
                    </mxGeometry>
                </mxCell>
                <mxCell id="55" value="&lt;div style=&quot;font-family: Menlo, Monaco, &amp;quot;Courier New&amp;quot;, monospace; line-height: 18px;&quot;&gt;&lt;font color=&quot;#000000&quot;&gt;clickHelKugle&lt;/font&gt;&lt;/div&gt;" style="swimlane;fontStyle=4;align=center;verticalAlign=top;childLayout=stackLayout;horizontal=1;startSize=37;horizontalStack=0;resizeParent=1;resizeParentMax=0;resizeLast=0;collapsible=0;marginBottom=0;html=1;rounded=1;absoluteArcSize=1;arcSize=25;fillColor=#eeeeee;strokeColor=#36393d;" parent="1" vertex="1">
                    <mxGeometry x="10" y="440" width="190" height="137" as="geometry"/>
                </mxCell>
                <mxCell id="56" value="Få 1 point" style="fillColor=none;strokeColor=none;align=left;verticalAlign=middle;spacingLeft=5;fontColor=#000000;" parent="55" vertex="1">
                    <mxGeometry y="37" width="190" height="20" as="geometry"/>
                </mxCell>
                <mxCell id="57" value="Skriv point ud" style="fillColor=none;strokeColor=none;align=left;verticalAlign=middle;spacingLeft=5;fontColor=#000000;" parent="55" vertex="1">
                    <mxGeometry y="57" width="190" height="20" as="geometry"/>
                </mxCell>
                <mxCell id="117" value="Afspil lyd good" style="fillColor=none;strokeColor=none;align=left;verticalAlign=middle;spacingLeft=5;fontColor=#000000;" parent="55" vertex="1">
                    <mxGeometry y="77" width="190" height="20" as="geometry"/>
                </mxCell>
                <mxCell id="119" value="Start frys -animation" style="fillColor=none;strokeColor=none;align=left;verticalAlign=middle;spacingLeft=5;fontColor=#000000;" parent="55" vertex="1">
                    <mxGeometry y="97" width="190" height="20" as="geometry"/>
                </mxCell>
                <mxCell id="58" value="Start drej_forsvind_hel -animation" style="fillColor=none;strokeColor=none;align=left;verticalAlign=middle;spacingLeft=5;fontColor=#000000;" parent="55" vertex="1">
                    <mxGeometry y="117" width="190" height="20" as="geometry"/>
                </mxCell>
                <mxCell id="63" value="&lt;font color=&quot;#000000&quot;&gt;sidenVises&lt;/font&gt;" style="swimlane;fontStyle=4;align=center;verticalAlign=top;childLayout=stackLayout;horizontal=1;startSize=37;horizontalStack=0;resizeParent=1;resizeParentMax=0;resizeLast=0;collapsible=0;marginBottom=0;html=1;rounded=1;absoluteArcSize=1;arcSize=25;fillColor=#eeeeee;strokeColor=#36393d;" parent="1" vertex="1">
                    <mxGeometry x="405" y="80" width="140" height="77" as="geometry"/>
                </mxCell>
                <mxCell id="64" value="Skjul andre skærme" style="fillColor=none;strokeColor=none;align=left;verticalAlign=middle;spacingLeft=5;fontColor=#000000;" parent="63" vertex="1">
                    <mxGeometry y="37" width="140" height="20" as="geometry"/>
                </mxCell>
                <mxCell id="65" value="Vis start skærm" style="fillColor=none;strokeColor=none;align=left;verticalAlign=middle;spacingLeft=5;fontColor=#000000;" parent="63" vertex="1">
                    <mxGeometry y="57" width="140" height="20" as="geometry"/>
                </mxCell>
                <mxCell id="68" value="&lt;div style=&quot;font-family: Menlo, Monaco, &amp;quot;Courier New&amp;quot;, monospace; line-height: 18px;&quot;&gt;&lt;font color=&quot;#000000&quot;&gt;helKugleReset&lt;/font&gt;&lt;/div&gt;" style="swimlane;fontStyle=4;align=center;verticalAlign=top;childLayout=stackLayout;horizontal=1;startSize=37;horizontalStack=0;resizeParent=1;resizeParentMax=0;resizeLast=0;collapsible=0;marginBottom=0;html=1;rounded=1;absoluteArcSize=1;arcSize=25;fillColor=#eeeeee;strokeColor=#36393d;" parent="1" vertex="1">
                    <mxGeometry x="10" y="640" width="190" height="97" as="geometry"/>
                </mxCell>
                <mxCell id="69" value="Vis element igen" style="fillColor=none;strokeColor=none;align=left;verticalAlign=middle;spacingLeft=5;fontColor=#000000;" parent="68" vertex="1">
                    <mxGeometry y="37" width="190" height="20" as="geometry"/>
                </mxCell>
                <mxCell id="70" value="Ny random position og speed" style="fillColor=none;strokeColor=none;align=left;verticalAlign=middle;spacingLeft=5;fontColor=#000000;" parent="68" vertex="1">
                    <mxGeometry y="57" width="190" height="20" as="geometry"/>
                </mxCell>
                <mxCell id="71" value="Genstart fald -animation" style="fillColor=none;strokeColor=none;align=left;verticalAlign=middle;spacingLeft=5;fontColor=#000000;" parent="68" vertex="1">
                    <mxGeometry y="77" width="190" height="20" as="geometry"/>
                </mxCell>
                <mxCell id="72" value="" style="edgeStyle=orthogonalEdgeStyle;rounded=0;orthogonalLoop=1;jettySize=auto;html=1;exitX=0.5;exitY=1;exitDx=0;exitDy=0;entryX=0.5;entryY=0;entryDx=0;entryDy=0;strokeColor=#000000;startArrow=none;" parent="1" source="136" target="68" edge="1">
                    <mxGeometry x="0.0476" y="-45" relative="1" as="geometry">
                        <mxPoint as="offset"/>
                    </mxGeometry>
                </mxCell>
                <mxCell id="73" value="" style="edgeStyle=orthogonalEdgeStyle;rounded=0;orthogonalLoop=1;jettySize=auto;html=1;exitX=0;exitY=0.5;exitDx=0;exitDy=0;entryX=0.5;entryY=0;entryDx=0;entryDy=0;fillColor=#eeeeee;strokeColor=#36393d;startArrow=none;" parent="1" target="55" edge="1" source="132">
                    <mxGeometry x="0.3414" relative="1" as="geometry">
                        <mxPoint as="offset"/>
                        <mxPoint x="340" y="337" as="sourcePoint"/>
                        <Array as="points">
                            <mxPoint x="105" y="330"/>
                        </Array>
                    </mxGeometry>
                </mxCell>
                <mxCell id="74" value="" style="edgeStyle=orthogonalEdgeStyle;rounded=0;orthogonalLoop=1;jettySize=auto;html=1;entryX=1;entryY=0.25;entryDx=0;entryDy=0;fillColor=#eeeeee;strokeColor=#36393d;startArrow=none;exitX=0.004;exitY=0.628;exitDx=0;exitDy=0;exitPerimeter=0;" parent="1" source="152" target="70" edge="1">
                    <mxGeometry x="0.5566" relative="1" as="geometry">
                        <Array as="points">
                            <mxPoint x="254" y="703"/>
                        </Array>
                        <mxPoint as="offset"/>
                        <mxPoint x="410" y="420" as="sourcePoint"/>
                    </mxGeometry>
                </mxCell>
                <mxCell id="75" value="&lt;div style=&quot;font-family: Menlo, Monaco, &amp;quot;Courier New&amp;quot;, monospace; line-height: 18px;&quot;&gt;&lt;font color=&quot;#000000&quot;&gt;clickKnustlKugle&lt;/font&gt;&lt;/div&gt;" style="swimlane;fontStyle=4;align=center;verticalAlign=top;childLayout=stackLayout;horizontal=1;startSize=37;horizontalStack=0;resizeParent=1;resizeParentMax=0;resizeLast=0;collapsible=0;marginBottom=0;html=1;rounded=1;absoluteArcSize=1;arcSize=25;fillColor=#eeeeee;strokeColor=#36393d;" parent="1" vertex="1">
                    <mxGeometry x="640" y="450" width="200" height="137" as="geometry"/>
                </mxCell>
                <mxCell id="76" value="mist et liv" style="fillColor=none;strokeColor=none;align=left;verticalAlign=middle;spacingLeft=5;fontColor=#000000;" parent="75" vertex="1">
                    <mxGeometry y="37" width="200" height="20" as="geometry"/>
                </mxCell>
                <mxCell id="77" value="Vis antal liv" style="fillColor=none;strokeColor=none;align=left;verticalAlign=middle;spacingLeft=5;fontColor=#000000;" parent="75" vertex="1">
                    <mxGeometry y="57" width="200" height="20" as="geometry"/>
                </mxCell>
                <mxCell id="118" value="Afspil lyd bad" style="fillColor=none;strokeColor=none;align=left;verticalAlign=middle;spacingLeft=5;fontColor=#000000;" parent="75" vertex="1">
                    <mxGeometry y="77" width="200" height="20" as="geometry"/>
                </mxCell>
                <mxCell id="124" value="Start frys -animation" style="fillColor=none;strokeColor=none;align=left;verticalAlign=middle;spacingLeft=5;fontColor=#000000;" parent="75" vertex="1">
                    <mxGeometry y="97" width="200" height="20" as="geometry"/>
                </mxCell>
                <mxCell id="125" value="Start drej_forsvind_knust -animation" style="fillColor=none;strokeColor=none;align=left;verticalAlign=middle;spacingLeft=5;fontColor=#000000;" parent="75" vertex="1">
                    <mxGeometry y="117" width="200" height="20" as="geometry"/>
                </mxCell>
                <mxCell id="79" value="&lt;div style=&quot;font-family: Menlo, Monaco, &amp;quot;Courier New&amp;quot;, monospace; line-height: 18px;&quot;&gt;&lt;font color=&quot;#000000&quot;&gt;knustKugleReset&lt;/font&gt;&lt;/div&gt;" style="swimlane;fontStyle=4;align=center;verticalAlign=top;childLayout=stackLayout;horizontal=1;startSize=37;horizontalStack=0;resizeParent=1;resizeParentMax=0;resizeLast=0;collapsible=0;marginBottom=0;html=1;rounded=1;absoluteArcSize=1;arcSize=25;fillColor=#eeeeee;strokeColor=#36393d;" parent="1" vertex="1">
                    <mxGeometry x="640" y="640" width="190" height="97" as="geometry"/>
                </mxCell>
                <mxCell id="80" value="Vis element igen" style="fillColor=none;strokeColor=none;align=left;verticalAlign=middle;spacingLeft=5;fontColor=#000000;" parent="79" vertex="1">
                    <mxGeometry y="37" width="190" height="20" as="geometry"/>
                </mxCell>
                <mxCell id="81" value="Ny random position og speed" style="fillColor=none;strokeColor=none;align=left;verticalAlign=middle;spacingLeft=5;fontColor=#000000;" parent="79" vertex="1">
                    <mxGeometry y="57" width="190" height="20" as="geometry"/>
                </mxCell>
                <mxCell id="82" value="Genstart fald -animation" style="fillColor=none;strokeColor=none;align=left;verticalAlign=middle;spacingLeft=5;fontColor=#000000;" parent="79" vertex="1">
                    <mxGeometry y="77" width="190" height="20" as="geometry"/>
                </mxCell>
                <mxCell id="83" value="" style="edgeStyle=orthogonalEdgeStyle;rounded=0;orthogonalLoop=1;jettySize=auto;html=1;exitX=0.5;exitY=1;exitDx=0;exitDy=0;fillColor=#eeeeee;strokeColor=#36393d;startArrow=none;" parent="1" source="139" edge="1">
                    <mxGeometry x="0.0142" relative="1" as="geometry">
                        <mxPoint x="735" y="567" as="sourcePoint"/>
                        <mxPoint x="740" y="640" as="targetPoint"/>
                        <Array as="points">
                            <mxPoint x="740" y="640"/>
                        </Array>
                        <mxPoint as="offset"/>
                    </mxGeometry>
                </mxCell>
                <mxCell id="84" value="" style="edgeStyle=orthogonalEdgeStyle;rounded=0;orthogonalLoop=1;jettySize=auto;html=1;exitX=1;exitY=0.5;exitDx=0;exitDy=0;entryX=0.5;entryY=0;entryDx=0;entryDy=0;fillColor=#eeeeee;strokeColor=#36393d;startArrow=none;" parent="1" source="140" target="75" edge="1">
                    <mxGeometry x="-0.4373" y="5" relative="1" as="geometry">
                        <mxPoint as="offset"/>
                        <Array as="points">
                            <mxPoint x="740" y="367"/>
                        </Array>
                    </mxGeometry>
                </mxCell>
                <mxCell id="85" value="" style="edgeStyle=orthogonalEdgeStyle;rounded=0;orthogonalLoop=1;jettySize=auto;html=1;entryX=0;entryY=0.25;entryDx=0;entryDy=0;fillColor=#eeeeee;strokeColor=#36393d;startArrow=none;exitX=1.005;exitY=0.558;exitDx=0;exitDy=0;exitPerimeter=0;" parent="1" source="138" edge="1">
                    <mxGeometry x="0.599" relative="1" as="geometry">
                        <mxPoint x="620" y="700" as="sourcePoint"/>
                        <mxPoint x="640" y="702" as="targetPoint"/>
                        <Array as="points"/>
                        <mxPoint as="offset"/>
                    </mxGeometry>
                </mxCell>
                <mxCell id="87" value="" style="edgeStyle=orthogonalEdgeStyle;rounded=0;orthogonalLoop=1;jettySize=auto;html=1;entryX=0.5;entryY=0;entryDx=0;entryDy=0;exitX=1;exitY=0.5;exitDx=0;exitDy=0;fillColor=#eeeeee;strokeColor=#36393d;startArrow=none;" parent="1" source="141" target="88" edge="1">
                    <mxGeometry x="-0.6652" relative="1" as="geometry">
                        <mxPoint x="740.0000000000002" y="120" as="sourcePoint"/>
                        <mxPoint x="765" y="87" as="targetPoint"/>
                        <mxPoint as="offset"/>
                    </mxGeometry>
                </mxCell>
                <mxCell id="88" value="&lt;font color=&quot;#000000&quot;&gt;stopSpillet&lt;/font&gt;" style="swimlane;fontStyle=4;align=center;verticalAlign=top;childLayout=stackLayout;horizontal=1;startSize=30;horizontalStack=0;resizeParent=1;resizeParentMax=0;resizeLast=0;collapsible=0;marginBottom=0;html=1;rounded=1;absoluteArcSize=1;arcSize=50;fillColor=#eeeeee;strokeColor=#36393d;" parent="1" vertex="1">
                    <mxGeometry x="990" y="400" width="170" height="70" as="geometry"/>
                </mxCell>
                <mxCell id="89" value="Fjern alle animationer" style="fillColor=none;strokeColor=none;align=left;verticalAlign=middle;spacingLeft=5;fontColor=#000000;" parent="88" vertex="1">
                    <mxGeometry y="30" width="170" height="20" as="geometry"/>
                </mxCell>
                <mxCell id="90" value="Fjern alle eventListerner-ere" style="fillColor=none;strokeColor=none;align=left;verticalAlign=middle;spacingLeft=5;fontColor=#000000;" parent="88" vertex="1">
                    <mxGeometry y="50" width="170" height="20" as="geometry"/>
                </mxCell>
                <mxCell id="91" value="" style="edgeStyle=orthogonalEdgeStyle;rounded=0;orthogonalLoop=1;jettySize=auto;html=1;exitX=0.987;exitY=0.588;exitDx=0;exitDy=0;entryX=0.5;entryY=0;entryDx=0;entryDy=0;fillColor=#eeeeee;strokeColor=#36393d;startArrow=none;exitPerimeter=0;" parent="1" source="145" target="92" edge="1">
                    <mxGeometry x="-0.002" relative="1" as="geometry">
                        <mxPoint x="1060" y="520" as="targetPoint"/>
                        <Array as="points">
                            <mxPoint x="1215" y="510"/>
                        </Array>
                        <mxPoint as="offset"/>
                    </mxGeometry>
                </mxCell>
                <mxCell id="92" value="&lt;font color=&quot;#000000&quot;&gt;levelComplete&lt;/font&gt;" style="swimlane;fontStyle=4;align=center;verticalAlign=top;childLayout=stackLayout;horizontal=1;startSize=30;horizontalStack=0;resizeParent=1;resizeParentMax=0;resizeLast=0;collapsible=0;marginBottom=0;html=1;rounded=1;absoluteArcSize=1;arcSize=92;fillColor=#eeeeee;strokeColor=#36393d;" parent="1" vertex="1">
                    <mxGeometry x="1140" y="530" width="150" height="50" as="geometry"/>
                </mxCell>
                <mxCell id="93" value="Vis levelcomplete skærm" style="fillColor=none;strokeColor=none;align=left;verticalAlign=middle;spacingLeft=5;fontColor=#000000;" parent="92" vertex="1">
                    <mxGeometry y="30" width="150" height="20" as="geometry"/>
                </mxCell>
                <mxCell id="94" style="edgeStyle=orthogonalEdgeStyle;rounded=0;orthogonalLoop=1;jettySize=auto;html=1;exitX=0.25;exitY=1;exitDx=0;exitDy=0;entryX=0.5;entryY=0;entryDx=0;entryDy=0;fillColor=#eeeeee;strokeColor=#36393d;" parent="1" source="93" target="102" edge="1">
                    <mxGeometry relative="1" as="geometry">
                        <mxPoint x="1185" y="620" as="targetPoint"/>
                        <Array as="points">
                            <mxPoint x="1175" y="580"/>
                        </Array>
                    </mxGeometry>
                </mxCell>
                <mxCell id="95" value="&lt;font color=&quot;#000000&quot;&gt;gameOver&lt;/font&gt;" style="swimlane;fontStyle=4;align=center;verticalAlign=top;childLayout=stackLayout;horizontal=1;startSize=30;horizontalStack=0;resizeParent=1;resizeParentMax=0;resizeLast=0;collapsible=0;marginBottom=0;html=1;rounded=1;absoluteArcSize=1;arcSize=92;fillColor=#eeeeee;strokeColor=#36393d;" parent="1" vertex="1">
                    <mxGeometry x="900" y="527" width="140" height="50" as="geometry"/>
                </mxCell>
                <mxCell id="96" value="Vis gameover skærm" style="fillColor=none;strokeColor=none;align=left;verticalAlign=middle;spacingLeft=5;fontColor=#000000;" parent="95" vertex="1">
                    <mxGeometry y="30" width="140" height="20" as="geometry"/>
                </mxCell>
                <mxCell id="98" value="" style="edgeStyle=orthogonalEdgeStyle;rounded=0;orthogonalLoop=1;jettySize=auto;html=1;exitX=0.004;exitY=0.561;exitDx=0;exitDy=0;entryX=0.5;entryY=0;entryDx=0;entryDy=0;fillColor=#eeeeee;strokeColor=#36393d;startArrow=none;exitPerimeter=0;" parent="1" source="144" target="95" edge="1">
                    <mxGeometry x="-0.0021" relative="1" as="geometry">
                        <mxPoint x="974" y="530" as="targetPoint"/>
                        <Array as="points">
                            <mxPoint x="970" y="510"/>
                        </Array>
                        <mxPoint as="offset"/>
                    </mxGeometry>
                </mxCell>
                <mxCell id="99" style="edgeStyle=orthogonalEdgeStyle;rounded=0;orthogonalLoop=1;jettySize=auto;html=1;exitX=0.5;exitY=1;exitDx=0;exitDy=0;entryX=0.281;entryY=-0.007;entryDx=0;entryDy=0;fillColor=#eeeeee;strokeColor=#36393d;startArrow=none;entryPerimeter=0;" parent="1" source="142" target="95" edge="1">
                    <mxGeometry relative="1" as="geometry">
                        <mxPoint x="939" y="530" as="targetPoint"/>
                    </mxGeometry>
                </mxCell>
                <mxCell id="101" value="" style="ellipse;html=1;shape=endState;fillColor=#eeeeee;strokeColor=#36393d;" parent="1" vertex="1">
                    <mxGeometry x="920" y="707" width="30" height="30" as="geometry"/>
                </mxCell>
                <mxCell id="102" value="" style="ellipse;html=1;shape=endState;fillColor=#eeeeee;strokeColor=#36393d;" parent="1" vertex="1">
                    <mxGeometry x="1160" y="707" width="30" height="30" as="geometry"/>
                </mxCell>
                <mxCell id="103" value="" style="edgeStyle=orthogonalEdgeStyle;rounded=0;orthogonalLoop=1;jettySize=auto;html=1;exitX=0.75;exitY=1;exitDx=0;exitDy=0;entryX=0.819;entryY=-0.005;entryDx=0;entryDy=0;entryPerimeter=0;fillColor=#eeeeee;strokeColor=#36393d;" parent="1" source="96" target="25" edge="1">
                    <mxGeometry x="-0.9176" relative="1" as="geometry">
                        <mxPoint x="710" y="263" as="targetPoint"/>
                        <Array as="points">
                            <mxPoint x="990" y="577"/>
                            <mxPoint x="990" y="780"/>
                            <mxPoint x="1350" y="780"/>
                            <mxPoint x="1350" y="200"/>
                            <mxPoint x="561" y="200"/>
                        </Array>
                        <mxPoint y="-1" as="offset"/>
                    </mxGeometry>
                </mxCell>
                <mxCell id="104" value="" style="edgeStyle=orthogonalEdgeStyle;rounded=0;orthogonalLoop=1;jettySize=auto;html=1;exitX=0.75;exitY=1;exitDx=0;exitDy=0;entryX=1.015;entryY=0.097;entryDx=0;entryDy=0;entryPerimeter=0;fillColor=#eeeeee;strokeColor=#36393d;" parent="1" source="93" target="25" edge="1">
                    <mxGeometry x="-0.8887" y="17" relative="1" as="geometry">
                        <mxPoint x="1255" y="780" as="targetPoint"/>
                        <Array as="points">
                            <mxPoint x="1255" y="680"/>
                            <mxPoint x="1300" y="680"/>
                            <mxPoint x="1300" y="259"/>
                        </Array>
                        <mxPoint as="offset"/>
                    </mxGeometry>
                </mxCell>
                <mxCell id="109" style="edgeStyle=orthogonalEdgeStyle;rounded=0;orthogonalLoop=1;jettySize=auto;html=1;exitX=0.25;exitY=1;exitDx=0;exitDy=0;entryX=0.5;entryY=0;entryDx=0;entryDy=0;fillColor=#eeeeee;strokeColor=#36393d;" parent="1" source="96" target="101" edge="1">
                    <mxGeometry relative="1" as="geometry"/>
                </mxCell>
                <mxCell id="110" style="edgeStyle=orthogonalEdgeStyle;rounded=0;orthogonalLoop=1;jettySize=auto;html=1;exitX=1;exitY=0.5;exitDx=0;exitDy=0;entryX=0.213;entryY=0.014;entryDx=0;entryDy=0;entryPerimeter=0;fillColor=#eeeeee;strokeColor=#36393d;startArrow=none;" parent="1" source="143" target="88" edge="1">
                    <mxGeometry relative="1" as="geometry">
                        <Array as="points">
                            <mxPoint x="1026" y="380"/>
                        </Array>
                    </mxGeometry>
                </mxCell>
                <mxCell id="127" value="" style="edgeStyle=orthogonalEdgeStyle;rounded=0;orthogonalLoop=1;jettySize=auto;html=1;exitX=0.5;exitY=1;exitDx=0;exitDy=0;entryX=0.5;entryY=0;entryDx=0;entryDy=0;fillColor=#eeeeee;strokeColor=#36393d;endArrow=none;" edge="1" parent="1" source="2" target="126">
                    <mxGeometry x="-0.0025" relative="1" as="geometry">
                        <mxPoint x="475" y="80" as="targetPoint"/>
                        <mxPoint x="475" y="30" as="sourcePoint"/>
                        <mxPoint as="offset"/>
                    </mxGeometry>
                </mxCell>
                <mxCell id="126" value="Windows load" style="fillColor=none;strokeColor=none;align=left;verticalAlign=middle;spacingLeft=5;fontColor=#000000;" vertex="1" parent="1">
                    <mxGeometry x="432" y="40" width="86" height="20" as="geometry"/>
                </mxCell>
                <mxCell id="131" value="" style="edgeStyle=orthogonalEdgeStyle;rounded=0;orthogonalLoop=1;jettySize=auto;html=1;exitX=0.5;exitY=1;exitDx=0;exitDy=0;entryX=0.5;entryY=0;entryDx=0;entryDy=0;fillColor=#eeeeee;strokeColor=#36393d;endArrow=none;" edge="1" parent="1" source="65" target="130">
                    <mxGeometry relative="1" as="geometry">
                        <mxPoint x="475" y="157" as="sourcePoint"/>
                        <mxPoint x="475" y="240" as="targetPoint"/>
                    </mxGeometry>
                </mxCell>
                <mxCell id="130" value="Klik på start knap" style="fillColor=none;strokeColor=none;align=left;verticalAlign=middle;spacingLeft=5;fontColor=#000000;" vertex="1" parent="1">
                    <mxGeometry x="420" y="180" width="110" height="20" as="geometry"/>
                </mxCell>
                <mxCell id="135" value="" style="edgeStyle=orthogonalEdgeStyle;rounded=0;orthogonalLoop=1;jettySize=auto;html=1;exitX=0;exitY=0;exitDx=0;exitDy=0;entryX=1;entryY=0.5;entryDx=0;entryDy=0;fillColor=#eeeeee;strokeColor=#36393d;endArrow=none;" edge="1" parent="1" target="132">
                    <mxGeometry x="0.3414" relative="1" as="geometry">
                        <mxPoint as="offset"/>
                        <mxPoint x="340" y="337" as="sourcePoint"/>
                        <mxPoint x="105" y="440" as="targetPoint"/>
                        <Array as="points">
                            <mxPoint x="340" y="330"/>
                        </Array>
                    </mxGeometry>
                </mxCell>
                <mxCell id="132" value="Klik på hel kugle" style="fillColor=none;strokeColor=none;align=left;verticalAlign=middle;spacingLeft=5;fontColor=#000000;" vertex="1" parent="1">
                    <mxGeometry x="120" y="320" width="100" height="20" as="geometry"/>
                </mxCell>
                <mxCell id="146" value="Klik på genstart1" style="fillColor=none;strokeColor=none;align=left;verticalAlign=middle;spacingLeft=5;fontColor=#000000;" vertex="1" parent="1">
                    <mxGeometry x="945" y="620" width="100" height="20" as="geometry"/>
                </mxCell>
                <mxCell id="147" value="Klik på genstart2" style="fillColor=none;strokeColor=none;align=left;verticalAlign=middle;spacingLeft=5;fontColor=#000000;" vertex="1" parent="1">
                    <mxGeometry x="1205" y="630" width="100" height="20" as="geometry"/>
                </mxCell>
                <mxCell id="148" value="" style="edgeStyle=orthogonalEdgeStyle;rounded=0;orthogonalLoop=1;jettySize=auto;html=1;exitX=0.5;exitY=1;exitDx=0;exitDy=0;entryX=0.5;entryY=0;entryDx=0;entryDy=0;strokeColor=#000000;endArrow=none;" edge="1" parent="1" source="58" target="136">
                    <mxGeometry x="0.0476" y="-45" relative="1" as="geometry">
                        <mxPoint x="105" y="577" as="sourcePoint"/>
                        <mxPoint x="105" y="640" as="targetPoint"/>
                        <mxPoint as="offset"/>
                    </mxGeometry>
                </mxCell>
                <mxCell id="136" value="drej_forsvind_hel -animation færdig" style="fillColor=none;strokeColor=none;align=left;verticalAlign=middle;spacingLeft=5;fontColor=#000000;" vertex="1" parent="1">
                    <mxGeometry x="5" y="590" width="200" height="20" as="geometry"/>
                </mxCell>
                <mxCell id="153" value="" style="edgeStyle=orthogonalEdgeStyle;rounded=0;orthogonalLoop=1;jettySize=auto;html=1;entryX=1;entryY=0.5;entryDx=0;entryDy=0;fillColor=#eeeeee;strokeColor=#36393d;startArrow=none;endArrow=none;exitX=0.37;exitY=1.009;exitDx=0;exitDy=0;exitPerimeter=0;" edge="1" parent="1" source="52" target="152">
                    <mxGeometry x="0.5566" relative="1" as="geometry">
                        <Array as="points">
                            <mxPoint x="440" y="700"/>
                        </Array>
                        <mxPoint as="offset"/>
                        <mxPoint x="440" y="400" as="sourcePoint"/>
                        <mxPoint x="200" y="702" as="targetPoint"/>
                    </mxGeometry>
                </mxCell>
                <mxCell id="152" value="fald -animation kørt en gang" style="fillColor=none;strokeColor=none;align=left;verticalAlign=middle;spacingLeft=5;fontColor=#000000;" vertex="1" parent="1">
                    <mxGeometry x="260" y="690" width="160" height="20" as="geometry"/>
                </mxCell>
                <mxCell id="154" value="" style="edgeStyle=orthogonalEdgeStyle;rounded=0;orthogonalLoop=1;jettySize=auto;html=1;exitX=0.5;exitY=1;exitDx=0;exitDy=0;entryX=0;entryY=0.5;entryDx=0;entryDy=0;fillColor=#eeeeee;strokeColor=#36393d;endArrow=none;" edge="1" parent="1" source="52" target="138">
                    <mxGeometry x="0.599" relative="1" as="geometry">
                        <mxPoint x="475" y="397" as="sourcePoint"/>
                        <mxPoint x="640" y="702" as="targetPoint"/>
                        <Array as="points">
                            <mxPoint x="460" y="397"/>
                            <mxPoint x="460" y="700"/>
                        </Array>
                        <mxPoint as="offset"/>
                    </mxGeometry>
                </mxCell>
                <mxCell id="138" value="fald -animation kørt en gang" style="fillColor=none;strokeColor=none;align=left;verticalAlign=middle;spacingLeft=5;fontColor=#000000;" vertex="1" parent="1">
                    <mxGeometry x="470" y="683.5" width="160" height="33" as="geometry"/>
                </mxCell>
                <mxCell id="155" value="" style="edgeStyle=orthogonalEdgeStyle;rounded=0;orthogonalLoop=1;jettySize=auto;html=1;entryX=0;entryY=0.5;entryDx=0;entryDy=0;exitX=1;exitY=0.75;exitDx=0;exitDy=0;fillColor=#eeeeee;strokeColor=#36393d;endArrow=none;" edge="1" parent="1" source="46" target="141">
                    <mxGeometry x="-0.6652" relative="1" as="geometry">
                        <mxPoint x="610" y="312" as="sourcePoint"/>
                        <mxPoint x="1075" y="400" as="targetPoint"/>
                        <mxPoint as="offset"/>
                        <Array as="points">
                            <mxPoint x="610" y="310"/>
                        </Array>
                    </mxGeometry>
                </mxCell>
                <mxCell id="141" value="timer -animation færdig" style="fillColor=none;strokeColor=none;align=left;verticalAlign=middle;spacingLeft=5;fontColor=#000000;" vertex="1" parent="1">
                    <mxGeometry x="650" y="300" width="140" height="20" as="geometry"/>
                </mxCell>
                <mxCell id="156" value="" style="edgeStyle=orthogonalEdgeStyle;rounded=0;orthogonalLoop=1;jettySize=auto;html=1;exitX=1;exitY=0.75;exitDx=0;exitDy=0;entryX=0;entryY=0.5;entryDx=0;entryDy=0;fillColor=#eeeeee;strokeColor=#36393d;endArrow=none;" edge="1" parent="1" source="50" target="140">
                    <mxGeometry x="-0.4373" y="5" relative="1" as="geometry">
                        <mxPoint as="offset"/>
                        <mxPoint x="610" y="372" as="sourcePoint"/>
                        <mxPoint x="740" y="450" as="targetPoint"/>
                        <Array as="points">
                            <mxPoint x="610" y="367"/>
                        </Array>
                    </mxGeometry>
                </mxCell>
                <mxCell id="140" value="Klik på knust kugle" style="fillColor=none;strokeColor=none;align=left;verticalAlign=middle;spacingLeft=5;fontColor=#000000;" vertex="1" parent="1">
                    <mxGeometry x="620" y="357" width="110" height="20" as="geometry"/>
                </mxCell>
                <mxCell id="157" value="" style="edgeStyle=orthogonalEdgeStyle;rounded=0;orthogonalLoop=1;jettySize=auto;html=1;exitX=0.5;exitY=1;exitDx=0;exitDy=0;fillColor=#eeeeee;strokeColor=#36393d;endArrow=none;" edge="1" parent="1" source="75" target="139">
                    <mxGeometry x="0.0142" relative="1" as="geometry">
                        <mxPoint x="740" y="587" as="sourcePoint"/>
                        <mxPoint x="740" y="640" as="targetPoint"/>
                        <Array as="points"/>
                        <mxPoint as="offset"/>
                    </mxGeometry>
                </mxCell>
                <mxCell id="139" value="drej_forsvind_knust -animation færdig" style="fillColor=none;strokeColor=none;align=left;verticalAlign=middle;spacingLeft=5;fontColor=#000000;" vertex="1" parent="1">
                    <mxGeometry x="632.5" y="600" width="215" height="20" as="geometry"/>
                </mxCell>
                <mxCell id="158" value="" style="edgeStyle=orthogonalEdgeStyle;rounded=0;orthogonalLoop=1;jettySize=auto;html=1;exitX=1;exitY=0.5;exitDx=0;exitDy=0;entryX=0;entryY=0.5;entryDx=0;entryDy=0;fillColor=#eeeeee;strokeColor=#36393d;endArrow=none;" edge="1" parent="1" source="76" target="143">
                    <mxGeometry relative="1" as="geometry">
                        <Array as="points">
                            <mxPoint x="840" y="527"/>
                            <mxPoint x="860" y="527"/>
                            <mxPoint x="860" y="380"/>
                        </Array>
                        <mxPoint x="840" y="497" as="sourcePoint"/>
                        <mxPoint x="1026.2099999999998" y="400.9799999999999" as="targetPoint"/>
                    </mxGeometry>
                </mxCell>
                <mxCell id="143" value="[ingen liv tilbage]" style="fillColor=none;strokeColor=none;align=left;verticalAlign=middle;spacingLeft=5;fontColor=#000000;" vertex="1" parent="1">
                    <mxGeometry x="870" y="370" width="100" height="20" as="geometry"/>
                </mxCell>
                <mxCell id="159" value="" style="edgeStyle=orthogonalEdgeStyle;rounded=0;orthogonalLoop=1;jettySize=auto;html=1;exitX=0;exitY=0;exitDx=0;exitDy=0;entryX=0.5;entryY=0;entryDx=0;entryDy=0;fillColor=#eeeeee;strokeColor=#36393d;endArrow=none;" edge="1" parent="1" source="90" target="142">
                    <mxGeometry relative="1" as="geometry">
                        <mxPoint x="935" y="527" as="targetPoint"/>
                        <mxPoint x="990" y="450" as="sourcePoint"/>
                    </mxGeometry>
                </mxCell>
                <mxCell id="142" value="[ingen liv tilbage]" style="fillColor=none;strokeColor=none;align=left;verticalAlign=middle;spacingLeft=5;fontColor=#000000;" vertex="1" parent="1">
                    <mxGeometry x="890" y="457" width="100" height="20" as="geometry"/>
                </mxCell>
                <mxCell id="160" value="" style="edgeStyle=orthogonalEdgeStyle;rounded=0;orthogonalLoop=1;jettySize=auto;html=1;exitX=0.5;exitY=1;exitDx=0;exitDy=0;entryX=0.993;entryY=0.596;entryDx=0;entryDy=0;fillColor=#eeeeee;strokeColor=#36393d;endArrow=none;entryPerimeter=0;" edge="1" parent="1" source="90" target="144">
                    <mxGeometry x="-0.0021" relative="1" as="geometry">
                        <mxPoint x="970" y="527" as="targetPoint"/>
                        <Array as="points">
                            <mxPoint x="1075" y="510"/>
                        </Array>
                        <mxPoint x="1075" y="470" as="sourcePoint"/>
                        <mxPoint as="offset"/>
                    </mxGeometry>
                </mxCell>
                <mxCell id="144" value="[ellers]" style="fillColor=none;strokeColor=none;align=left;verticalAlign=middle;spacingLeft=5;fontColor=#000000;" vertex="1" parent="1">
                    <mxGeometry x="1000" y="498.5" width="50" height="20" as="geometry"/>
                </mxCell>
                <mxCell id="166" value="" style="edgeStyle=orthogonalEdgeStyle;rounded=0;orthogonalLoop=1;jettySize=auto;html=1;exitX=0.5;exitY=1;exitDx=0;exitDy=0;entryX=0;entryY=0.5;entryDx=0;entryDy=0;fillColor=#eeeeee;strokeColor=#36393d;endArrow=none;" edge="1" parent="1" source="90" target="145">
                    <mxGeometry x="-0.002" relative="1" as="geometry">
                        <mxPoint x="1215" y="530" as="targetPoint"/>
                        <Array as="points"/>
                        <mxPoint x="1075" y="470" as="sourcePoint"/>
                        <mxPoint as="offset"/>
                    </mxGeometry>
                </mxCell>
                <mxCell id="145" value="[point &gt; 15]" style="fillColor=none;strokeColor=none;align=left;verticalAlign=middle;spacingLeft=5;fontColor=#000000;" vertex="1" parent="1">
                    <mxGeometry x="1110" y="498.5" width="70" height="20" as="geometry"/>
                </mxCell>
            </root>
        </mxGraphModel>
    </diagram>
</mxfile>